# AST/ASF file generated using VICON BodyLanguage
# -----------------------------------------------
:version 1.10
:name VICON
:units
  mass 1.0
  length 0.45
  angle deg
:documentation
   .ast/.asf automatically generated from VICON data using
   VICON BodyBuilder and BodyLanguage model FoxedUp or BRILLIANT.MOD
:root
   order TX TY TZ RX RY RZ
   axis XYZ
   position 0 0 0  
   orientation 0 0 0 
:bonedata
  begin
     id 1 
     name lhipjoint
     direction 0.611804 -0.747784 0.257906 
     length 2.29243 
     axis 0 0 0  XYZ
  end
  begin
     id 2 
     name lfemur
     direction 0.34202 -0.939693 0  
     length 7.31159  
     axis 0 0 20  XYZ
    dof rx ry rz
    limits (-160.0 20.0)
           (-70.0 70.0)
           (-60.0 70.0)
  end
  begin
     id 3 
     name ltibia
     direction 0.34202 -0.939693 0   
     length 7.33391   
     axis 0 0 20   XYZ
    dof rx
    limits (-10.0 170.0)
  end
  begin
     id 4 
     name lfoot
     direction 0.122263 -0.335914 0.933924   
     length 1.76083   
     axis -90 7.62852e-016 20   XYZ
    dof rx rz
    limits (-45.0 90.0)
           (-70.0 20.0)
  end
  begin
     id 5 
     name ltoes
     direction 1.53533e-011 -4.2177e-011 1   
     length 0.879206   
     axis -90 7.62852e-016 20   XYZ
    dof rx
    limits (-90.0 20.0)
  end
  begin
     id 6 
     name rhipjoint
     direction -0.646469 -0.721248 0.248754   
     length 2.37677  
     axis 0 0 0  XYZ 
  end
  begin
     id 7 
     name rfemur
     direction -0.34202 -0.939693 0   
     length 7.18623   
     axis 0 0 -20   XYZ
    dof rx ry rz
    limits (-160.0 20.0)
           (-70.0 70.0)
           (-70.0 60.0)
  end
  begin
     id 8 
     name rtibia
     direction -0.34202 -0.939693 0   
     length 7.36567   
     axis 0 0 -20   XYZ
    dof rx
    limits (-10.0 170.0)
 end
 begin
     id 9 
     name rfoot
     direction -0.126681 -0.348054 0.928876   
     length 1.71902  
     axis -90 -7.62852e-016 -20   XYZ
    dof rx rz
    limits (-45.0 90.0)
           (-20.0 70.0)
  end
  begin
     id 10 
     name rtoes
     direction -1.53551e-011 -4.21898e-011 1   
     length 0.857792   
     axis -90 -7.62852e-016 -20   XYZ
    dof rx
    limits (-90.0 20.0)
  end
  begin
     id 11 
     name lowerback
     direction 0.0106509 0.999778 0.0181844   
     length 2.07668   
     axis 0 0 0   XYZ
    dof rx ry rz
    limits (-20.0 45.0)
           (-30.0 30.0)
           (-30.0 30.0)
  end
  begin
     id 12 
     name upperback
     direction -0.00456018 0.999989 -0.000590935   
     length 2.08011   
     axis 0 0 0   XYZ
    dof rx ry rz
    limits (-20.0 45.0)
           (-30.0 30.0)
           (-30.0 30.0)
  end
  begin
     id 13 
     name thorax
     direction -0.00910382 0.999916 -0.00923765   
     length 2.07397   
     axis 0 0 0   XYZ
    dof rx ry rz
    limits (-20.0 45.0)
           (-30.0 30.0)
           (-30.0 30.0)
  end
  begin
     id 14 
     name lowerneck
     direction 0.00171967 0.99778 0.0665733   
     length 1.67556   
     axis 0 0 0   XYZ
    dof rx ry rz
    limits (-20.0 45.0)
           (-30.0 30.0)
           (-30.0 30.0)
  end
  begin
     id 15 
     name upperneck
     direction -0.0143166 0.991302 -0.130828   
     length 1.68462   
     axis 0 0 0   XYZ
    dof rx ry rz
    limits (-20.0 45.0)
           (-30.0 30.0)
           (-30.0 30.0)
  end
  begin
     id 16
     name head
     direction -0.00606378 0.998665 -0.0512995  
     length 1.69269  
     axis 0 0 0   XYZ
    dof rx ry rz
    limits (-20.0 45.0)
           (-30.0 30.0)
           (-30.0 30.0)
  end
  begin
     id 17 
     name lclavicle
     direction 0.9638 0.179341 0.197297  
     length 4.12888  
     axis 0 0 0   XYZ
    dof ry rz
    limits (-20.0 10.0)
           (0.0 20.0)
  end
  begin
     id 18 
     name lhumerus
     direction 1 -4.48972e-011 -2.47351e-027   
     length 5.01834   
     axis -180 -30 -90   XYZ
    dof rx ry rz
    limits (-60.0 90.0)
           (-90.0 90.0)
           (-90.0 90.0)
  end
  begin
     id 19
     name lradius
     direction 1 -4.48965e-011 1.51591e-026   
     length 3.4869   
     axis -180 -30 -90   XYZ
    dof rx
    limits (-10.0 170.0)
  end
  begin
     id 20
     name lwrist
     direction 1 -4.48957e-011 2.70032e-026   
     length 1.74345   
     axis -1.81515e-014 90 90   XYZ
    dof ry
    limits (-180.0 0.0)
 end
  begin
     id 21 
     name lhand
     direction 1 -4.48951e-011 5.40064e-026   
     length 0.76799   
     axis -3.44607e-014 90 90   XYZ
    dof rx rz
    limits (-90.0 90.0)
           (-45.0 45.0)
  end
  begin
     id 22 
     name lfingers
     direction 1 -4.48971e-011 1.08013e-025   
     length 0.619174   
     axis -6.89214e-014 90 90   XYZ
    dof rx
    limits (0.0 90.0)
  end
  begin
     id 23
     name lthumb
     direction 0.707107 -6.34931e-011 0.707107   
     length 0.889013   
     axis -90 45 2.85299e-015   XYZ
    dof rx rz
    limits (-45.0 45.0)
           (-45.0 45.0)
  end
  begin
     id 24 
     name rclavicle
     direction -0.961409 0.252588 0.109054   
     length 4.04305  
     axis 0 0 0   XYZ 
    dof ry rz
    limits (-10.0 20.0)
           (-20.0 0.0)
  end
  begin
     id 25 
     name rhumerus
     direction -1 -4.4897e-011 1.33872e-017  
     length 4.70164   
     axis -180 30 90   XYZ
    dof rx ry rz
    limits (-90.0 60.0)
           (-90.0 90.0)
           (-90.0 90.0)
  end
  begin
     id 26 
     name rradius
     direction -1 -4.48954e-011 1.83844e-026   
     length 3.49911   
     axis -180 30 90   XYZ
    dof rx
    limits (-10.0 170.0)
  end
  begin
     id 27 
     name rwrist
     direction -1 -4.49008e-011 2.70032e-026   
     length 1.74955   
     axis -1.81515e-014 -90 -90   XYZ
    dof ry
    limits (-180.0 0.0)
  end
  begin
     id 28
     name rhand
     direction -1 -4.48916e-011 5.40064e-026   
     length 0.739335   
     axis -3.44607e-014 -90 -90   XYZ
    dof rx rz
    limits (-90.0 90.0)
           (-45.0 45.0)
  end
  begin
     id 29
     name rfingers
     direction -1 -4.48987e-011 1.08013e-025   
     length 0.596071   
     axis -6.89214e-014 -90 -90   XYZ
    dof rx
    limits (0.0 90.0)
  end
  begin
     id 30
     name rthumb
     direction -0.707107 -6.34935e-011 0.707107   
     length 0.855843   
     axis -90 -45 -2.85299e-015   XYZ
    dof rx rz
    limits (-45.0 45.0)
           (-45.0 45.0)
  end
:hierarchy
  begin
    root lhipjoint rhipjoint lowerback
    lhipjoint lfemur
    lfemur ltibia
    ltibia lfoot
    lfoot ltoes
    rhipjoint rfemur
    rfemur rtibia
    rtibia rfoot
    rfoot rtoes
    lowerback upperback
    upperback thorax
    thorax lowerneck lclavicle rclavicle
    lowerneck upperneck
    upperneck head
    lclavicle lhumerus
    lhumerus lradius
    lradius lwrist
    lwrist lhand lthumb
    lhand lfingers
    rclavicle rhumerus
    rhumerus rradius
    rradius rwrist
    rwrist rhand rthumb
    rhand rfingers
  end

#!OML:ASF I:\salsa\salsa 7_09\Patient 1\Session 1\dancermale.ASF
:FULLY-SPECIFIED
:DEGREES
963
root 2.54059 17.3829 2.81962 -1067.88 -203.109 719.926
lowerback 177.372 -178.128 -179.965
upperback -2.41768 -2.43172 -0.0459411
thorax -1.00845 -1.18895 -0.10812
lowerneck -9.22198 -0.111319 3.40514
upperneck 23.5376 1.87616 -6.6061
head 8.94463 0.918692 -2.57387
rclavicle 3.61291e-014 5.56597e-015
rhumerus -41.0929 7.10862 -88.6456
rradius 87.1836
rwrist -17.0131
rhand -53.0794 -3.03889
rfingers 7.12502
rthumb -25.5418 -31.3466
lclavicle 3.61291e-014 5.56597e-015
lhumerus -25.8168 -10.2959 95.8536
lradius 81.4007
lwrist 68.8863
lhand -11.1994 59.6377
lfingers 7.12502
lthumb 14.8284 -270.913
rfemur -25.6484 -7.62972 24.8943
rtibia 25.3488
rfoot -15.7635 -19.9134
rtoes 9.16505
lfemur -16.6385 16.1302 -20.2589
ltibia 33.0107
lfoot -19.5717 11.2079
ltoes -13.4639
964
root 2.49769 17.3625 2.92998 -1067.56 -201.905 719.822
lowerback 177.426 -177.898 -179.744
upperback -2.52925 -2.7376 -0.0194053
thorax -1.16314 -1.34302 -0.204251
lowerneck -9.36156 -0.0629907 3.22034
upperneck 23.5928 1.94534 -6.4507
head 8.99228 0.94852 -2.48236
rclavicle 8.2272e-014 -3.37934e-015
rhumerus -42.4992 7.49842 -90.1425
rradius 87.1044
rwrist -16.1788
rhand -53.6311 -1.82706
rfingers 7.12502
rthumb -26.0702 -30.058
lclavicle 8.2272e-014 -3.37934e-015
lhumerus -23.9771 -9.23272 96.1301
lradius 78.608
lwrist 68.5349
lhand -10.8154 59.629
lfingers 7.12502
lthumb 15.1983 -270.949
rfemur -28.0782 -9.03331 25.0072
rtibia 28.4238
rfoot -15.8299 -19.4904
rtoes 5.38715
lfemur -15.979 13.2155 -20.3943
ltibia 30.0896
lfoot -20.4997 12.4392
ltoes -14.901
965
root 2.46584 17.3366 3.04506 -1067.17 -200.975 719.85
lowerback 177.401 -177.748 -179.628
upperback -2.61022 -2.93362 0.10586
thorax -1.23279 -1.44015 -0.143126
lowerneck -9.47153 0.014719 2.83184
upperneck 23.5642 2.05123 -6.15987
head 9.00504 0.989819 -2.30435
rclavicle -3.03644e-014 -8.94531e-016
rhumerus -43.6572 7.90453 -91.3065
rradius 86.5966
rwrist -14.7597
rhand -53.8362 -0.511577
rfingers 7.12502
rthumb -26.2666 -28.7134
lclavicle -3.03644e-014 -8.94531e-016
lhumerus -21.9527 -8.03483 96.3462
lradius 75.8188
lwrist 67.8315
lhand -10.7555 59.1513
lfingers 7.12502
lthumb 15.256 -271.431
rfemur -30.7126 -9.98195 25.1415
rtibia 31.8414
rfoot -15.8644 -18.617
rtoes 1.35149
lfemur -15.8015 10.5549 -20.2194
ltibia 28.1379
lfoot -21.1107 12.9516
ltoes -16.8519
966
root 2.44776 17.3218 3.1626 -1067.39 -200.129 719.776
lowerback 177.94 -177.613 -179.717
upperback -2.53519 -3.1195 0.160602
thorax -1.45071 -1.5348 -0.0175586
lowerneck -9.50204 0.0232425 2.6842
upperneck 23.5289 2.02946 -5.93415
head 8.99479 0.987349 -2.20353
rclavicle 1.53313e-014 3.27995e-015
rhumerus -44.5685 8.27814 -92.2592
rradius 85.5805
rwrist -12.8942
rhand -53.7541 1.17444
rfingers 7.12502
rthumb -26.1879 -27.0391
lclavicle 1.53313e-014 3.27995e-015
lhumerus -20.0667 -6.81864 96.388
lradius 73.2898
lwrist 66.6934
lhand -10.7999 58.7949
lfingers 7.12502
lthumb 15.2132 -271.784
rfemur -32.645 -10.7498 24.9242
rtibia 35.2536
rfoot -15.5707 -17.3776
rtoes -1.85722
lfemur -15.4612 8.49734 -19.9573
ltibia 27.1914
lfoot -21.7362 12.882
ltoes -18.9016
967
root 2.43501 17.3069 3.28195 -1067.75 -199.365 719.596
lowerback 178.526 -177.468 -179.794
upperback -2.4332 -3.32134 0.100228
thorax -1.67382 -1.63883 -0.0121966
lowerneck -9.52678 0.134107 2.55328
upperneck 23.5764 2.18401 -5.77473
head 9.02155 1.06647 -2.11021
rclavicle -5.27152e-014 1.11319e-014
rhumerus -45.2595 8.82327 -93.1224
rradius 84.0733
rwrist -11.0711
rhand -53.7948 3.05903
rfingers 7.12502
rthumb -26.2269 -25.1487
lclavicle -5.27152e-014 1.11319e-014
lhumerus -18.1041 -5.72753 96.141
lradius 70.6668
lwrist 65.6365
lhand -10.7203 58.5487
lfingers 7.12502
lthumb 15.2899 -272.036
rfemur -34.4899 -11.2229 24.386
rtibia 38.8549
rfoot -15.2048 -15.4937
rtoes -3.57649
lfemur -15.4587 7.14799 -19.845
ltibia 26.9915
lfoot -22.5285 12.4934
ltoes -18.7939
968
root 2.43191 17.2799 3.4014 -1067.92 -199.05 719.414
lowerback 178.805 -177.467 -179.875
upperback -2.35173 -3.32869 -0.0336075
thorax -1.74957 -1.64439 -0.092988
lowerneck -9.63071 0.306103 2.38481
upperneck 23.7471 2.41374 -5.48506
head 9.10738 1.19086 -1.95834
rclavicle 5.4467e-014 -1.09332e-015
rhumerus -45.6331 9.41468 -93.7542
rradius 82.1033
rwrist -9.4755
rhand -53.8886 5.72558
rfingers 7.12502
rthumb -26.3167 -22.4688
lclavicle 5.4467e-014 -1.09332e-015
lhumerus -15.8108 -4.69195 95.6459
lradius 67.7984
lwrist 64.8472
lhand -10.0681 58.1991
lfingers 7.12502
lthumb 15.9181 -272.435
rfemur -36.4952 -10.7314 23.5627
rtibia 42.6877
rfoot -14.9048 -12.6584
rtoes -5.08721
lfemur -15.8384 6.66642 -19.8676
ltibia 27.1394
lfoot -23.1555 12.198
ltoes -17.5986
969
root 2.44084 17.2437 3.51768 -1067.93 -199.071 719.207
lowerback 178.907 -177.607 -179.996
upperback -2.39236 -3.14316 -0.233963
thorax -1.8526 -1.55047 -0.225306
lowerneck -10.0265 0.444449 1.78751
upperneck 24.4487 2.59463 -4.60617
head 9.42013 1.31893 -1.53531
rclavicle -9.71809e-014 -1.98785e-015
rhumerus -45.8483 9.87317 -94.0803
rradius 79.765
rwrist -7.92182
rhand -53.4859 8.22599
rfingers 7.12502
rthumb -25.9312 -20.0254
lclavicle -9.71809e-014 -1.98785e-015
lhumerus -13.7041 -3.50534 95.0231
lradius 65.0746
lwrist 63.94
lhand -9.75733 57.2823
lfingers 7.12502
lthumb 16.2173 -273.376
rfemur -38.4972 -9.54041 22.5262
rtibia 46.5268
rfoot -14.4015 -9.18278
rtoes -8.12447
lfemur -16.4264 6.60944 -19.9863
ltibia 27.4067
lfoot -23.4977 12.0998
ltoes -16.939
970
root 2.45934 17.1994 3.62993 -1067.78 -198.965 719
lowerback 178.803 -177.719 -180.053
upperback -2.51658 -2.98891 -0.440966
thorax -1.92959 -1.47101 -0.407114
lowerneck -10.1402 0.6018 1.65554
upperneck 24.9093 2.86467 -4.36866
head 9.61031 1.47191 -1.39923
rclavicle 1.03617e-014 1.98785e-015
rhumerus -45.9683 10.3364 -94.1942
rradius 77.2421
rwrist -6.64069
rhand -52.7972 9.82471
rfingers 7.12502
rthumb -25.2715 -18.5215
lclavicle 1.03617e-014 1.98785e-015
lhumerus -11.7705 -2.05249 94.2983
lradius 62.5143
lwrist 62.8811
lhand -10.4424 55.6104
lfingers 7.12502
lthumb 15.5575 -274.995
rfemur -40.3145 -7.8753 21.1789
rtibia 50.7217
rfoot -15.1732 -7.88681
rtoes -7.59868
lfemur -17.4341 6.32831 -20.0633
ltibia 28.1017
lfoot -23.6118 11.7765
ltoes -15.5203
971
root 2.49205 17.1531 3.73812 -1067.95 -198.513 718.838
lowerback 178.926 -177.753 -179.979
upperback -2.48554 -2.94708 -0.682251
thorax -1.98296 -1.45367 -0.690815
lowerneck -10.1493 0.824426 1.89531
upperneck 25.1285 3.23199 -4.53858
head 9.70959 1.65933 -1.45641
rclavicle 8.17502e-015 0
rhumerus -45.8889 10.7083 -94.1554
rradius 74.6238
rwrist -5.70903
rhand -52.274 11.5062
rfingers 7.12502
rthumb -24.7701 -16.9098
lclavicle 8.17502e-015 0
lhumerus -9.76145 -0.347664 93.4661
lradius 60.08
lwrist 61.7496
lhand -10.8593 54.5205
lfingers 7.12502
lthumb 15.156 -276.054
rfemur -41.2546 -6.11389 19.6679
rtibia 54.5581
rfoot -15.2939 -9.91059
rtoes -4.52021
lfemur -18.4518 5.67628 -19.9184
ltibia 29.5144
lfoot -23.7321 11.4062
ltoes -15.237
972
root 2.5372 17.1075 3.84397 -1068.2 -197.94 718.619
lowerback 179.094 -177.789 -179.883
upperback -2.4383 -2.90259 -0.974122
thorax -2.0481 -1.43576 -1.03762
lowerneck -10.2533 1.10152 2.01035
upperneck 25.3283 3.64523 -4.52274
head 9.81886 1.8717 -1.42108
rclavicle -2.6339e-014 6.36111e-015
rhumerus -45.7693 10.9467 -93.8685
rradius 71.9491
rwrist -4.71792
rhand -51.3823 13.61
rfingers 7.12502
rthumb -23.9153 -14.9208
lclavicle -2.6339e-014 6.36111e-015
lhumerus -7.81195 1.48585 92.5827
lradius 57.8226
lwrist 60.2727
lhand -10.2072 53.8674
lfingers 7.12502
lthumb 15.7841 -276.756
rfemur -41.7537 -4.27286 17.9135
rtibia 58.2358
rfoot -15.7087 -12.2156
rtoes -0.103027
lfemur -19.8177 4.93116 -19.7684
ltibia 31.6575
lfoot -24.1935 11.6033
ltoes -18.3077
973
root 2.60724 17.0651 3.94024 -1068.47 -197.358 718.334
lowerback 179.137 -177.858 -180.108
upperback -2.37875 -2.81126 -1.14944
thorax -2.0071 -1.38657 -1.0922
lowerneck -10.1754 1.45896 2.03875
upperneck 25.1886 4.19357 -4.65512
head 9.77973 2.12179 -1.40792
rclavicle -7.50412e-015 1.98785e-015
rhumerus -45.7757 11.4145 -93.2977
rradius 69.4017
rwrist -3.82491
rhand -49.3014 15.7764
rfingers 7.12502
rthumb -21.9184 -13.002
lclavicle -7.50412e-015 1.98785e-015
lhumerus -5.98355 3.22892 91.8305
lradius 55.8275
lwrist 59.0406
lhand -9.93494 53.2355
lfingers 7.12502
lthumb 16.0463 -277.409
rfemur -41.8636 -2.22107 15.9189
rtibia 61.5388
rfoot -15.9867 -14.5777
rtoes 5.25014
lfemur -21.2181 4.29438 -19.5814
ltibia 33.9482
lfoot -24.8835 11.8291
ltoes -21.4149
974
root 2.70469 17.0201 4.02251 -1068.83 -197.022 718.296
lowerback 179.106 -178.071 -180.441
upperback -2.22 -2.53016 -1.14916
thorax -1.80656 -1.24155 -0.913261
lowerneck -9.89178 1.78031 2.48171
upperneck 24.961 4.72777 -5.22261
head 9.69005 2.36695 -1.62085
rclavicle 2.4202e-014 9.14409e-015
rhumerus -45.9159 12.0001 -92.5571
rradius 67.0575
rwrist -2.80139
rhand -48.6443 17.1396
rfingers 7.12502
rthumb -21.2874 -11.7113
lclavicle 2.4202e-014 9.14409e-015
lhumerus -4.32677 4.84166 91.2175
lradius 54.1238
lwrist 57.8559
lhand -9.81926 52.9482
lfingers 7.12502
lthumb 16.1577 -277.705
rfemur -41.3747 0.320873 14.0773
rtibia 64.1571
rfoot -15.3146 -16.2436
rtoes 11.0837
lfemur -22.0227 4.01521 -18.992
ltibia 35.7683
lfoot -25.5664 11.6528
ltoes -23.6599
975
root 2.76951 16.9718 4.1015 -1068.91 -196.136 718.345
lowerback 178.979 -178.145 -179.967
upperback -2.17668 -2.43066 -1.22798
thorax -1.71287 -1.20083 -1.26445
lowerneck -9.70543 2.20381 2.85065
upperneck 24.8017 5.48801 -5.95364
head 9.66508 2.69744 -1.85004
rclavicle -1.66234e-014 1.31198e-014
rhumerus -46.1979 12.5894 -91.7881
rradius 64.9079
rwrist -1.4635
rhand -48.2068 19.0089
rfingers 7.12502
rthumb -20.8671 -9.8889
lclavicle -1.66234e-014 1.31198e-014
lhumerus -3.01422 6.29756 90.581
lradius 52.6763
lwrist 56.3967
lhand -9.20523 52.3189
lfingers 7.12502
lthumb 16.7489 -278.384
rfemur -40.8799 1.88556 12.3284
rtibia 66.3669
rfoot -13.3449 -17.0495
rtoes 15.5622
lfemur -23.103 3.30234 -18.4632
ltibia 37.3409
lfoot -25.9145 11.4824
ltoes -25.7881
976
root 2.78934 16.9701 4.18181 -1069.08 -195.338 717.271
lowerback 179.056 -178.215 -179.844
upperback -2.32592 -2.32843 -1.75387
thorax -1.93503 -1.15046 -1.86829
lowerneck -9.58074 2.73333 3.24762
upperneck 24.7956 6.41596 -6.62091
head 9.72494 3.12042 -2.04016
rclavicle 6.01821e-014 3.73715e-014
rhumerus -46.6 13.2191 -90.9964
rradius 62.967
rwrist -0.0897334
rhand -47.6851 20.4896
rfingers 7.12502
rthumb -20.3658 -8.46246
lclavicle 6.01821e-014 3.73715e-014
lhumerus -2.04467 7.48587 89.8261
lradius 51.456
lwrist 55.0915
lhand -8.52277 51.6084
lfingers 7.12502
lthumb 17.4058 -279.151
rfemur -39.911 2.72861 9.06794
rtibia 67.4048
rfoot -11.318 -16.1768
rtoes 21.965
lfemur -23.6477 2.60721 -19.6509
ltibia 37.8104
lfoot -26.0249 11.1834
ltoes -26.6858
